<svg id="Layer_5" enable-background="new 0 0 64 64" height="512" viewBox="0 0 64 64" width="512" xmlns="http://www.w3.org/2000/svg"><g><path d="m47 43c.551 0 1 .449 1 1h2c0-1.654-1.346-3-3-3v-2h-2v2h-3v3c0 1.654 1.346 3 3 3h2c.551 0 1 .449 1 1v1h-3c-.551 0-1-.449-1-1h-2c0 1.654 1.346 3 3 3v2h2v-2h3v-3c0-1.654-1.346-3-3-3h-2c-.551 0-1-.449-1-1v-1z"/><path d="m46 35c-6.065 0-11 4.935-11 11s4.935 11 11 11 11-4.935 11-11-4.935-11-11-11zm0 20c-4.962 0-9-4.038-9-9s4.038-9 9-9 9 4.038 9 9-4.038 9-9 9z"/><path d="m60.58 42.473c-.364-1.515-.96-2.952-1.777-4.286l1.143-2.284-2.946-2.945v-28.958c0-1.654-1.346-3-3-3h-50c-1.654 0-3 1.346-3 3v34c0 1.654 1.346 3 3 3h27.867c-.171.483-.326.972-.446 1.473l-2.421.806v5.441l2.42.807c.365 1.515.96 2.952 1.777 4.285l-1.143 2.284 3.848 3.848 2.284-1.143c1.333.817 2.77 1.413 4.285 1.777l.808 2.422h5.441l.807-2.42c1.515-.365 2.952-.96 4.285-1.777l2.284 1.143 3.848-3.848-1.143-2.284c.817-1.333 1.413-2.77 1.777-4.285l2.422-.808v-5.441zm-56.58-3.473c-.551 0-1-.449-1-1v-34c0-.551.449-1 1-1h50c.551 0 1 .449 1 1v28.604l-1.188.594c-1.333-.817-2.77-1.413-4.285-1.777l-.806-2.421h-5.441l-.807 2.42c-1.515.365-2.952.96-4.285 1.777l-2.284-1.143-3.848 3.848 1.143 2.284c-.163.266-.31.539-.455.813h-28.744zm57 8.279-2.142.714-.113.569c-.332 1.66-.979 3.219-1.922 4.635l-.323.484 1.011 2.021-1.809 1.809-2.021-1.011-.483.322c-1.416.944-2.976 1.591-4.635 1.922l-.569.113-.715 2.143h-2.559l-.714-2.142-.569-.113c-1.66-.332-3.219-.979-4.635-1.922l-.483-.323-2.021 1.011-1.809-1.809 1.011-2.021-.322-.483c-.944-1.416-1.591-2.976-1.922-4.635l-.113-.569-2.143-.715v-2.559l2.142-.714.113-.569c.332-1.66.979-3.219 1.922-4.636l.322-.483-1.011-2.021 1.809-1.809 2.021 1.011.483-.322c1.416-.944 2.976-1.591 4.635-1.922l.569-.113.716-2.142h2.559l.714 2.142.569.113c1.66.332 3.219.979 4.635 1.922l.483.322 2.021-1.011 1.809 1.809-1.011 2.022.322.483c.944 1.417 1.591 2.976 1.922 4.636l.113.569 2.143.714z"/><path d="m22.099 20.417-2.649-.757c-.502-.143-.914-.479-1.17-.917.819-.719 1.41-1.687 1.624-2.798 1.748-.263 3.096-1.761 3.096-3.581 0-4.061-3.303-7.364-7.364-7.364-1.957 0-3.797.758-5.185 2.135-2.074.798-3.451 2.787-3.451 5.027 0 1.861 1.333 3.415 3.094 3.763.211 1.12.802 2.095 1.626 2.819-.256.438-.668.774-1.171.917l-2.648.757c-1.708.486-2.901 2.068-2.901 3.845v2.737h20v-2.737c0-1.777-1.193-3.359-2.901-3.846zm-12.099-7.417v.788c-.591-.306-1-.916-1-1.626 0-1.46.931-2.751 2.316-3.213l.224-.075.303-.303c1.013-1.013 2.36-1.571 3.793-1.571 2.958 0 5.364 2.406 5.364 5.364 0 .677-.413 1.259-1 1.508v-2.872h-2.764c-1.308 0-2.618-.309-3.789-.895l-.211-.105h-.236c-1.654 0-3 1.346-3 3zm8 0v2c0 1.654-1.346 3-3 3s-3-1.346-3-3v-2c0-.486.349-.893.809-.982 1.38.643 2.905.982 4.427.982zm5 12h-16v-.737c0-.888.596-1.679 1.451-1.923l2.648-.757c1.013-.289 1.85-.964 2.362-1.851.488.16.999.268 1.539.268s1.051-.108 1.539-.268c.512.887 1.349 1.562 2.362 1.851l2.649.757c.854.244 1.45 1.035 1.45 1.923z"/><path d="m5 37h20v-8h-20zm2-6h16v4h-16z"/><path d="m53 5h-26v6h26zm-20 4h-4v-2h4zm6 0h-4v-2h4zm6 0h-4v-2h4zm6 0h-4v-2h4z"/><path d="m27 13h26v2h-26z"/><path d="m51 17h2v2h-2z"/><path d="m27 17h22v2h-22z"/><path d="m31 21h2v2h-2z"/><path d="m27 21h2v2h-2z"/><path d="m35 21h18v2h-18z"/><path d="m27 25h26v2h-26z"/></g></svg>