<svg id="icons" enable-background="new 0 0 64 64" height="512" viewBox="0 0 64 64" width="512" xmlns="http://www.w3.org/2000/svg"><g><g><path d="m63 38.5c-.553 0-1-.447-1-1v-25h-34v24c0 .553-.447 1-1 1s-1-.447-1-1v-25c0-.553.447-1 1-1h36c.553 0 1 .447 1 1v26c0 .553-.447 1-1 1z"/></g><g><path d="m27 24.5h-9c-.553 0-1-.447-1-1s.447-1 1-1h9c.553 0 1 .447 1 1s-.447 1-1 1z"/></g><g><path d="m9 32.5c-.275 0-.55-.113-.747-.336-.367-.412-.33-1.045.083-1.411l9-8c.411-.369 1.045-.332 1.411.083.367.412.33 1.045-.083 1.411l-9 8c-.19.17-.428.253-.664.253z"/></g><g><path d="m26 49.5h-17c-.553 0-1-.447-1-1s.447-1 1-1h17c.553 0 1 .447 1 1s-.447 1-1 1z"/></g><g><path d="m27 37.5c-.282 0-.563-.119-.761-.352-.358-.42-.309-1.051.112-1.409l7.263-6.191c.418-.359 1.052-.31 1.409.112.358.42.309 1.051-.112 1.409l-7.263 6.191c-.187.162-.419.24-.648.24z"/></g><g><path d="m25.999 49.5c-.255 0-.511-.097-.706-.292-.391-.39-.393-1.022-.002-1.414l13.001-13.051c.39-.391 1.022-.394 1.414-.002.391.39.393 1.022.002 1.414l-13.001 13.051c-.195.196-.451.294-.708.294z"/></g><g><path d="m63 38.5h-26.043c-.553 0-1-.447-1-1s.447-1 1-1h26.043c.553 0 1 .447 1 1s-.447 1-1 1z"/></g><g><path d="m9 50.5c-.553 0-1-.447-1-1v-20c0-.553.447-1 1-1s1 .447 1 1v20c0 .553-.447 1-1 1z"/></g><g><path d="m9 30.5h-3c-.553 0-1-.447-1-1s.447-1 1-1h3c.553 0 1 .447 1 1s-.447 1-1 1z"/></g><g><path d="m9 50.5h-3c-.553 0-1-.447-1-1s.447-1 1-1h3c.553 0 1 .447 1 1s-.447 1-1 1z"/></g><g><path d="m6 53.5h-5c-.553 0-1-.447-1-1s.447-1 1-1h4v-24h-4c-.553 0-1-.447-1-1s.447-1 1-1h5c.553 0 1 .447 1 1v26c0 .553-.447 1-1 1z"/></g><g><path d="m39 36.449c-.253 0-.506-.096-.7-.286-.395-.387-.4-1.021-.014-1.414.46-.469.714-1.09.714-1.749 0-1.379-1.121-2.5-2.5-2.5-.593 0-1.145.199-1.597.576-.426.355-1.057.297-1.408-.127-.354-.424-.297-1.055.127-1.408.805-.672 1.826-1.041 2.878-1.041 2.481 0 4.5 2.019 4.5 4.5 0 1.186-.457 2.305-1.286 3.149-.196.201-.455.3-.714.3z"/></g><g><path d="m42.444 43.266c-.248 0-.497-.092-.691-.277-.398-.381-.413-1.015-.031-1.414l4.555-4.766c.382-.397 1.014-.413 1.414-.031.398.381.413 1.015.031 1.414l-4.555 4.766c-.196.204-.459.308-.723.308z"/></g><g><path d="m40.019 44.5c-.553 0-1-.447-1-1s.447-1 1-1c.603 0 .9-.124 1.719-.941.391-.391 1.023-.391 1.414 0s.391 1.023 0 1.414c-.991.99-1.784 1.527-3.133 1.527z"/></g><g><path d="m37.426 43.266c-.248 0-.497-.092-.691-.277-.398-.381-.413-1.015-.031-1.414l4.555-4.766c.382-.397 1.014-.413 1.414-.031.398.381.413 1.015.031 1.414l-4.555 4.766c-.197.204-.46.308-.723.308z"/></g><g><path d="m35 44.5c-.553 0-1-.447-1-1s.447-1 1-1c.603 0 .9-.124 1.719-.941.391-.391 1.023-.391 1.414 0s.391 1.023 0 1.414c-.99.99-1.783 1.527-3.133 1.527z"/></g><g><path d="m40.019 44.5h-9.039c-.553 0-1-.447-1-1s.447-1 1-1h9.039c.553 0 1 .447 1 1s-.448 1-1 1z"/></g><g><path d="m41 20.526c-.553 0-1-.447-1-1 0-1.654-1.347-3.001-3.001-3.001s-3 1.347-3 3.001c0 .553-.447 1-1 1s-1-.447-1-1c0-2.758 2.243-5.001 5-5.001 2.758 0 5.001 2.243 5.001 5.001 0 .553-.447 1-1 1z"/></g><g><path d="m56 19.5h-10c-.553 0-1-.447-1-1s.447-1 1-1h10c.553 0 1 .447 1 1s-.447 1-1 1z"/></g><g><path d="m56 28.5h-7c-.553 0-1-.447-1-1s.447-1 1-1h7c.553 0 1 .447 1 1s-.447 1-1 1z"/></g><g><path d="m51 22.5h-5c-.553 0-1-.447-1-1s.447-1 1-1h5c.553 0 1 .447 1 1s-.447 1-1 1z"/></g><g><path d="m46.03 28.5c-.553 0-1.005-.447-1.005-1s.442-1 .994-1h.011c.552 0 1 .447 1 1s-.448 1-1 1z"/></g><g><path d="m56 32.5h-7c-.553 0-1-.447-1-1s.447-1 1-1h7c.553 0 1 .447 1 1s-.447 1-1 1z"/></g><g><path d="m46.03 32.5c-.553 0-1.005-.447-1.005-1s.442-1 .994-1h.011c.552 0 1 .447 1 1s-.448 1-1 1z"/></g><g><path d="m32.999 26.526c-.553 0-1-.447-1-1v-6c0-.553.447-1 1-1s1 .447 1 1v6c0 .553-.447 1-1 1z"/></g><g><path d="m41 26.526c-.553 0-1-.447-1-1v-6c0-.553.447-1 1-1s1 .447 1 1v6c0 .553-.447 1-1 1z"/></g><g><path d="m41.999 26.526h-10c-.553 0-1-.447-1-1s.447-1 1-1h10c.553 0 1 .447 1 1s-.447 1-1 1z"/></g><g><path d="m38 21.525h-2c-.553 0-1-.447-1-1s.447-1 1-1h2c.553 0 1 .447 1 1s-.447 1-1 1z"/></g></g></svg>