<svg id="_x31__x2C_5" enable-background="new 0 0 24 24" height="512" viewBox="0 0 24 24" width="512" xmlns="http://www.w3.org/2000/svg"><path d="m22.25 24h-9.5c-.965 0-1.75-.785-1.75-1.75v-5.5c0-.965.785-1.75 1.75-1.75h9.5c.965 0 1.75.785 1.75 1.75v5.5c0 .965-.785 1.75-1.75 1.75zm-9.5-7.5c-.138 0-.25.112-.25.25v5.5c0 .138.112.25.25.25h9.5c.138 0 .25-.112.25-.25v-5.5c0-.138-.112-.25-.25-.25z"/><path d="m17.5 20c-.139 0-.278-.039-.4-.116l-5.29-3.34c-.35-.221-.455-.684-.234-1.034.222-.351.684-.455 1.035-.233l4.89 3.087 4.89-3.087c.35-.222.813-.117 1.035.233s.116.813-.234 1.034l-5.29 3.34c-.124.077-.263.116-.402.116z"/><path d="m8.25 20h-6c-1.241 0-2.25-1.01-2.25-2.25v-8.5c0-1.24 1.009-2.25 2.25-2.25h11.5c1.241 0 2.25 1.01 2.25 2.25v3c0 .414-.336.75-.75.75s-.75-.336-.75-.75v-3c0-.413-.336-.75-.75-.75h-11.5c-.414 0-.75.337-.75.75v8.5c0 .413.336.75.75.75h6c.414 0 .75.336.75.75s-.336.75-.75.75z"/><path d="m12.25 8.5c-.414 0-.75-.336-.75-.75v-2.75c0-1.93-1.57-3.5-3.5-3.5s-3.5 1.57-3.5 3.5v2.75c0 .414-.336.75-.75.75s-.75-.336-.75-.75v-2.75c0-2.757 2.243-5 5-5s5 2.243 5 5v2.75c0 .414-.336.75-.75.75z"/></svg>